<mxfile host="app.diagrams.net" modified="2024-01-16T21:49:04.640Z" agent="Mozilla/5.0 (X11; Linux x86_64) AppleWebKit/537.36 (KHTML, like Gecko) Chrome/120.0.0.0 Safari/537.36" etag="EAKLbjyyImkQtxpYa3cq" version="22.1.18" type="github" pages="2">
  <diagram id="C5RBs43oDa-KdzZeNtuy" name="Page-1">
    <mxGraphModel dx="926" dy="806" grid="1" gridSize="10" guides="1" tooltips="1" connect="1" arrows="1" fold="1" page="1" pageScale="1" pageWidth="827" pageHeight="1169" math="0" shadow="0">
      <root>
        <mxCell id="WIyWlLk6GJQsqaUBKTNV-0" />
        <mxCell id="WIyWlLk6GJQsqaUBKTNV-1" parent="WIyWlLk6GJQsqaUBKTNV-0" />
        <mxCell id="hklokKXVVv5O5HjFflUN-2" value="" style="edgeStyle=orthogonalEdgeStyle;rounded=0;orthogonalLoop=1;jettySize=auto;html=1;" parent="WIyWlLk6GJQsqaUBKTNV-1" source="hklokKXVVv5O5HjFflUN-0" target="hklokKXVVv5O5HjFflUN-1" edge="1">
          <mxGeometry relative="1" as="geometry" />
        </mxCell>
        <mxCell id="hklokKXVVv5O5HjFflUN-0" value="Pin 0 RISING" style="html=1;dashed=0;whiteSpace=wrap;shape=mxgraph.dfd.start" parent="WIyWlLk6GJQsqaUBKTNV-1" vertex="1">
          <mxGeometry x="30" y="115" width="80" height="30" as="geometry" />
        </mxCell>
        <mxCell id="hklokKXVVv5O5HjFflUN-4" value="" style="edgeStyle=orthogonalEdgeStyle;rounded=0;orthogonalLoop=1;jettySize=auto;html=1;" parent="WIyWlLk6GJQsqaUBKTNV-1" source="hklokKXVVv5O5HjFflUN-1" target="hklokKXVVv5O5HjFflUN-3" edge="1">
          <mxGeometry relative="1" as="geometry" />
        </mxCell>
        <mxCell id="hklokKXVVv5O5HjFflUN-1" value="Save current time in microseconds" style="rounded=1;whiteSpace=wrap;html=1;dashed=0;" parent="WIyWlLk6GJQsqaUBKTNV-1" vertex="1">
          <mxGeometry x="130" y="100" width="120" height="60" as="geometry" />
        </mxCell>
        <mxCell id="hklokKXVVv5O5HjFflUN-6" value="" style="edgeStyle=orthogonalEdgeStyle;rounded=0;orthogonalLoop=1;jettySize=auto;html=1;" parent="WIyWlLk6GJQsqaUBKTNV-1" source="hklokKXVVv5O5HjFflUN-3" target="hklokKXVVv5O5HjFflUN-5" edge="1">
          <mxGeometry relative="1" as="geometry" />
        </mxCell>
        <mxCell id="hklokKXVVv5O5HjFflUN-3" value="Save time since last interrupt in timeArray at current index" style="whiteSpace=wrap;html=1;rounded=1;dashed=0;" parent="WIyWlLk6GJQsqaUBKTNV-1" vertex="1">
          <mxGeometry x="270" y="100" width="120" height="60" as="geometry" />
        </mxCell>
        <mxCell id="hklokKXVVv5O5HjFflUN-10" value="" style="edgeStyle=orthogonalEdgeStyle;rounded=0;orthogonalLoop=1;jettySize=auto;html=1;" parent="WIyWlLk6GJQsqaUBKTNV-1" source="hklokKXVVv5O5HjFflUN-5" target="hklokKXVVv5O5HjFflUN-9" edge="1">
          <mxGeometry relative="1" as="geometry" />
        </mxCell>
        <mxCell id="hklokKXVVv5O5HjFflUN-5" value="Read analog voltage value on ADC" style="whiteSpace=wrap;html=1;rounded=1;dashed=0;" parent="WIyWlLk6GJQsqaUBKTNV-1" vertex="1">
          <mxGeometry x="410" y="100" width="120" height="60" as="geometry" />
        </mxCell>
        <mxCell id="hklokKXVVv5O5HjFflUN-12" value="" style="edgeStyle=orthogonalEdgeStyle;rounded=0;orthogonalLoop=1;jettySize=auto;html=1;" parent="WIyWlLk6GJQsqaUBKTNV-1" source="hklokKXVVv5O5HjFflUN-9" target="hklokKXVVv5O5HjFflUN-11" edge="1">
          <mxGeometry relative="1" as="geometry" />
        </mxCell>
        <mxCell id="hklokKXVVv5O5HjFflUN-9" value="Send value to rmsSum() with time since last interrupt" style="shape=process;whiteSpace=wrap;html=1;backgroundOutline=1;rounded=1;dashed=0;" parent="WIyWlLk6GJQsqaUBKTNV-1" vertex="1">
          <mxGeometry x="550" y="100" width="120" height="60" as="geometry" />
        </mxCell>
        <mxCell id="hklokKXVVv5O5HjFflUN-14" value="" style="edgeStyle=orthogonalEdgeStyle;rounded=0;orthogonalLoop=1;jettySize=auto;html=1;" parent="WIyWlLk6GJQsqaUBKTNV-1" source="hklokKXVVv5O5HjFflUN-11" target="hklokKXVVv5O5HjFflUN-13" edge="1">
          <mxGeometry relative="1" as="geometry" />
        </mxCell>
        <mxCell id="hklokKXVVv5O5HjFflUN-11" value="Flush sum of squares and period time for full period" style="whiteSpace=wrap;html=1;rounded=1;dashed=0;" parent="WIyWlLk6GJQsqaUBKTNV-1" vertex="1">
          <mxGeometry x="690" y="100" width="120" height="60" as="geometry" />
        </mxCell>
        <mxCell id="hklokKXVVv5O5HjFflUN-16" value="" style="edgeStyle=orthogonalEdgeStyle;rounded=0;orthogonalLoop=1;jettySize=auto;html=1;" parent="WIyWlLk6GJQsqaUBKTNV-1" source="hklokKXVVv5O5HjFflUN-13" target="hklokKXVVv5O5HjFflUN-15" edge="1">
          <mxGeometry relative="1" as="geometry" />
        </mxCell>
        <mxCell id="hklokKXVVv5O5HjFflUN-13" value="Reset sqaure sum variable for next period" style="whiteSpace=wrap;html=1;rounded=1;dashed=0;" parent="WIyWlLk6GJQsqaUBKTNV-1" vertex="1">
          <mxGeometry x="690" y="180" width="120" height="60" as="geometry" />
        </mxCell>
        <mxCell id="PeePpHPMLZSX_GtU09Wr-3" value="" style="edgeStyle=orthogonalEdgeStyle;rounded=0;orthogonalLoop=1;jettySize=auto;html=1;" parent="WIyWlLk6GJQsqaUBKTNV-1" source="hklokKXVVv5O5HjFflUN-15" target="PeePpHPMLZSX_GtU09Wr-2" edge="1">
          <mxGeometry relative="1" as="geometry" />
        </mxCell>
        <mxCell id="hklokKXVVv5O5HjFflUN-15" value="Save current time to last time for next interrupt" style="whiteSpace=wrap;html=1;rounded=1;dashed=0;" parent="WIyWlLk6GJQsqaUBKTNV-1" vertex="1">
          <mxGeometry x="550" y="180" width="120" height="60" as="geometry" />
        </mxCell>
        <mxCell id="PeePpHPMLZSX_GtU09Wr-5" value="" style="edgeStyle=orthogonalEdgeStyle;rounded=0;orthogonalLoop=1;jettySize=auto;html=1;" parent="WIyWlLk6GJQsqaUBKTNV-1" source="PeePpHPMLZSX_GtU09Wr-2" target="PeePpHPMLZSX_GtU09Wr-4" edge="1">
          <mxGeometry relative="1" as="geometry" />
        </mxCell>
        <mxCell id="PeePpHPMLZSX_GtU09Wr-2" value="Increment timeArray index" style="whiteSpace=wrap;html=1;rounded=1;dashed=0;" parent="WIyWlLk6GJQsqaUBKTNV-1" vertex="1">
          <mxGeometry x="410" y="180" width="120" height="60" as="geometry" />
        </mxCell>
        <mxCell id="PeePpHPMLZSX_GtU09Wr-7" value="" style="edgeStyle=orthogonalEdgeStyle;rounded=0;orthogonalLoop=1;jettySize=auto;html=1;" parent="WIyWlLk6GJQsqaUBKTNV-1" source="PeePpHPMLZSX_GtU09Wr-4" target="PeePpHPMLZSX_GtU09Wr-6" edge="1">
          <mxGeometry relative="1" as="geometry" />
        </mxCell>
        <mxCell id="PeePpHPMLZSX_GtU09Wr-4" value="Array index = array length?" style="rhombus;whiteSpace=wrap;html=1;rounded=1;dashed=0;" parent="WIyWlLk6GJQsqaUBKTNV-1" vertex="1">
          <mxGeometry x="280" y="160" width="100" height="100" as="geometry" />
        </mxCell>
        <mxCell id="PeePpHPMLZSX_GtU09Wr-6" value="Set array index to zero" style="whiteSpace=wrap;html=1;rounded=1;dashed=0;" parent="WIyWlLk6GJQsqaUBKTNV-1" vertex="1">
          <mxGeometry x="130" y="180" width="120" height="60" as="geometry" />
        </mxCell>
        <mxCell id="PeePpHPMLZSX_GtU09Wr-10" value="Return" style="html=1;dashed=0;whiteSpace=wrap;shape=mxgraph.dfd.start" parent="WIyWlLk6GJQsqaUBKTNV-1" vertex="1">
          <mxGeometry x="30" y="195" width="80" height="30" as="geometry" />
        </mxCell>
        <mxCell id="PeePpHPMLZSX_GtU09Wr-11" style="edgeStyle=orthogonalEdgeStyle;rounded=0;orthogonalLoop=1;jettySize=auto;html=1;exitX=0;exitY=0.5;exitDx=0;exitDy=0;entryX=1;entryY=0.5;entryDx=0;entryDy=0;entryPerimeter=0;" parent="WIyWlLk6GJQsqaUBKTNV-1" source="PeePpHPMLZSX_GtU09Wr-6" target="PeePpHPMLZSX_GtU09Wr-10" edge="1">
          <mxGeometry relative="1" as="geometry" />
        </mxCell>
        <mxCell id="PeePpHPMLZSX_GtU09Wr-12" value="void timeStamp()" style="text;strokeColor=none;fillColor=none;html=1;fontSize=24;fontStyle=1;verticalAlign=middle;align=center;" parent="WIyWlLk6GJQsqaUBKTNV-1" vertex="1">
          <mxGeometry x="364" y="50" width="100" height="40" as="geometry" />
        </mxCell>
        <mxCell id="PeePpHPMLZSX_GtU09Wr-13" style="edgeStyle=orthogonalEdgeStyle;rounded=0;orthogonalLoop=1;jettySize=auto;html=1;exitX=0.5;exitY=1;exitDx=0;exitDy=0;entryX=0.5;entryY=0.5;entryDx=0;entryDy=15;entryPerimeter=0;" parent="WIyWlLk6GJQsqaUBKTNV-1" source="PeePpHPMLZSX_GtU09Wr-4" target="PeePpHPMLZSX_GtU09Wr-10" edge="1">
          <mxGeometry relative="1" as="geometry" />
        </mxCell>
        <mxCell id="PeePpHPMLZSX_GtU09Wr-14" value="Yes" style="text;html=1;strokeColor=none;fillColor=none;align=center;verticalAlign=middle;whiteSpace=wrap;rounded=0;" parent="WIyWlLk6GJQsqaUBKTNV-1" vertex="1">
          <mxGeometry x="240" y="180" width="60" height="30" as="geometry" />
        </mxCell>
        <mxCell id="PeePpHPMLZSX_GtU09Wr-15" value="No" style="text;html=1;strokeColor=none;fillColor=none;align=center;verticalAlign=middle;whiteSpace=wrap;rounded=0;" parent="WIyWlLk6GJQsqaUBKTNV-1" vertex="1">
          <mxGeometry x="270" y="250" width="60" height="30" as="geometry" />
        </mxCell>
        <mxCell id="PeePpHPMLZSX_GtU09Wr-18" value="" style="edgeStyle=orthogonalEdgeStyle;rounded=0;orthogonalLoop=1;jettySize=auto;html=1;" parent="WIyWlLk6GJQsqaUBKTNV-1" source="PeePpHPMLZSX_GtU09Wr-16" target="PeePpHPMLZSX_GtU09Wr-17" edge="1">
          <mxGeometry relative="1" as="geometry" />
        </mxCell>
        <mxCell id="PeePpHPMLZSX_GtU09Wr-16" value="Timer5 IRQ" style="html=1;dashed=0;whiteSpace=wrap;shape=mxgraph.dfd.start" parent="WIyWlLk6GJQsqaUBKTNV-1" vertex="1">
          <mxGeometry x="30" y="380" width="80" height="30" as="geometry" />
        </mxCell>
        <mxCell id="PeePpHPMLZSX_GtU09Wr-22" style="edgeStyle=orthogonalEdgeStyle;rounded=0;orthogonalLoop=1;jettySize=auto;html=1;exitX=1;exitY=0.5;exitDx=0;exitDy=0;entryX=0;entryY=0.5;entryDx=0;entryDy=0;" parent="WIyWlLk6GJQsqaUBKTNV-1" source="PeePpHPMLZSX_GtU09Wr-17" target="PeePpHPMLZSX_GtU09Wr-20" edge="1">
          <mxGeometry relative="1" as="geometry" />
        </mxCell>
        <mxCell id="PeePpHPMLZSX_GtU09Wr-17" value="Save current time in microseconds" style="rounded=1;whiteSpace=wrap;html=1;dashed=0;" parent="WIyWlLk6GJQsqaUBKTNV-1" vertex="1">
          <mxGeometry x="130" y="365" width="120" height="60" as="geometry" />
        </mxCell>
        <mxCell id="PeePpHPMLZSX_GtU09Wr-19" value="" style="edgeStyle=orthogonalEdgeStyle;rounded=0;orthogonalLoop=1;jettySize=auto;html=1;" parent="WIyWlLk6GJQsqaUBKTNV-1" source="PeePpHPMLZSX_GtU09Wr-20" target="PeePpHPMLZSX_GtU09Wr-21" edge="1">
          <mxGeometry relative="1" as="geometry" />
        </mxCell>
        <mxCell id="PeePpHPMLZSX_GtU09Wr-20" value="Read analog voltage value on ADC" style="whiteSpace=wrap;html=1;rounded=1;dashed=0;" parent="WIyWlLk6GJQsqaUBKTNV-1" vertex="1">
          <mxGeometry x="270" y="365" width="120" height="60" as="geometry" />
        </mxCell>
        <mxCell id="PeePpHPMLZSX_GtU09Wr-24" value="" style="edgeStyle=orthogonalEdgeStyle;rounded=0;orthogonalLoop=1;jettySize=auto;html=1;" parent="WIyWlLk6GJQsqaUBKTNV-1" source="PeePpHPMLZSX_GtU09Wr-21" target="PeePpHPMLZSX_GtU09Wr-23" edge="1">
          <mxGeometry relative="1" as="geometry" />
        </mxCell>
        <mxCell id="PeePpHPMLZSX_GtU09Wr-21" value="Send value to rmsSum() with time since last interrupt" style="shape=process;whiteSpace=wrap;html=1;backgroundOutline=1;rounded=1;dashed=0;" parent="WIyWlLk6GJQsqaUBKTNV-1" vertex="1">
          <mxGeometry x="410" y="365" width="120" height="60" as="geometry" />
        </mxCell>
        <mxCell id="PeePpHPMLZSX_GtU09Wr-23" value="Save current time to last time for next interrupt" style="whiteSpace=wrap;html=1;rounded=1;dashed=0;" parent="WIyWlLk6GJQsqaUBKTNV-1" vertex="1">
          <mxGeometry x="550" y="365" width="120" height="60" as="geometry" />
        </mxCell>
        <mxCell id="PeePpHPMLZSX_GtU09Wr-25" value="Return" style="html=1;dashed=0;whiteSpace=wrap;shape=mxgraph.dfd.start" parent="WIyWlLk6GJQsqaUBKTNV-1" vertex="1">
          <mxGeometry x="690" y="380" width="80" height="30" as="geometry" />
        </mxCell>
        <mxCell id="PeePpHPMLZSX_GtU09Wr-26" style="edgeStyle=orthogonalEdgeStyle;rounded=0;orthogonalLoop=1;jettySize=auto;html=1;exitX=1;exitY=0.5;exitDx=0;exitDy=0;entryX=0;entryY=0.5;entryDx=0;entryDy=0;entryPerimeter=0;" parent="WIyWlLk6GJQsqaUBKTNV-1" source="PeePpHPMLZSX_GtU09Wr-23" target="PeePpHPMLZSX_GtU09Wr-25" edge="1">
          <mxGeometry relative="1" as="geometry" />
        </mxCell>
        <mxCell id="PeePpHPMLZSX_GtU09Wr-27" value="void Timer5_digitalWaveCounter()" style="text;strokeColor=none;fillColor=none;html=1;fontSize=24;fontStyle=1;verticalAlign=middle;align=center;" parent="WIyWlLk6GJQsqaUBKTNV-1" vertex="1">
          <mxGeometry x="364" y="320" width="100" height="40" as="geometry" />
        </mxCell>
        <mxCell id="4UzRuKjp4Zi57GAiIAzN-0" value="void Timer5_analogSamplePassthrough()" style="text;strokeColor=none;fillColor=none;html=1;fontSize=24;fontStyle=1;verticalAlign=middle;align=center;" vertex="1" parent="WIyWlLk6GJQsqaUBKTNV-1">
          <mxGeometry x="364" y="480" width="100" height="40" as="geometry" />
        </mxCell>
        <mxCell id="4UzRuKjp4Zi57GAiIAzN-3" style="edgeStyle=none;curved=1;rounded=0;orthogonalLoop=1;jettySize=auto;html=1;exitX=1;exitY=0.5;exitDx=0;exitDy=0;exitPerimeter=0;entryX=0;entryY=0.5;entryDx=0;entryDy=0;fontSize=12;startSize=8;endSize=8;" edge="1" parent="WIyWlLk6GJQsqaUBKTNV-1" source="4UzRuKjp4Zi57GAiIAzN-1" target="4UzRuKjp4Zi57GAiIAzN-2">
          <mxGeometry relative="1" as="geometry" />
        </mxCell>
        <mxCell id="4UzRuKjp4Zi57GAiIAzN-1" value="Timer5 IRQ" style="html=1;dashed=0;whiteSpace=wrap;shape=mxgraph.dfd.start" vertex="1" parent="WIyWlLk6GJQsqaUBKTNV-1">
          <mxGeometry x="30" y="555" width="80" height="30" as="geometry" />
        </mxCell>
        <mxCell id="4UzRuKjp4Zi57GAiIAzN-5" value="" style="edgeStyle=none;curved=1;rounded=0;orthogonalLoop=1;jettySize=auto;html=1;fontSize=12;startSize=8;endSize=8;" edge="1" parent="WIyWlLk6GJQsqaUBKTNV-1" source="4UzRuKjp4Zi57GAiIAzN-2" target="4UzRuKjp4Zi57GAiIAzN-4">
          <mxGeometry relative="1" as="geometry" />
        </mxCell>
        <mxCell id="4UzRuKjp4Zi57GAiIAzN-2" value="Read analog voltage value on ADC" style="rounded=1;whiteSpace=wrap;html=1;dashed=0;" vertex="1" parent="WIyWlLk6GJQsqaUBKTNV-1">
          <mxGeometry x="130" y="540" width="120" height="60" as="geometry" />
        </mxCell>
        <mxCell id="4UzRuKjp4Zi57GAiIAzN-7" value="" style="edgeStyle=none;curved=1;rounded=0;orthogonalLoop=1;jettySize=auto;html=1;fontSize=12;startSize=8;endSize=8;" edge="1" parent="WIyWlLk6GJQsqaUBKTNV-1" source="4UzRuKjp4Zi57GAiIAzN-4" target="4UzRuKjp4Zi57GAiIAzN-6">
          <mxGeometry relative="1" as="geometry" />
        </mxCell>
        <mxCell id="4UzRuKjp4Zi57GAiIAzN-4" value="Filter value through lowpass filter" style="whiteSpace=wrap;html=1;rounded=1;dashed=0;" vertex="1" parent="WIyWlLk6GJQsqaUBKTNV-1">
          <mxGeometry x="270" y="540" width="120" height="60" as="geometry" />
        </mxCell>
        <mxCell id="4UzRuKjp4Zi57GAiIAzN-9" value="" style="edgeStyle=none;curved=1;rounded=0;orthogonalLoop=1;jettySize=auto;html=1;fontSize=12;startSize=8;endSize=8;" edge="1" parent="WIyWlLk6GJQsqaUBKTNV-1" source="4UzRuKjp4Zi57GAiIAzN-6" target="4UzRuKjp4Zi57GAiIAzN-8">
          <mxGeometry relative="1" as="geometry" />
        </mxCell>
        <mxCell id="4UzRuKjp4Zi57GAiIAzN-6" value="Write filtered value to DAC" style="whiteSpace=wrap;html=1;rounded=1;dashed=0;" vertex="1" parent="WIyWlLk6GJQsqaUBKTNV-1">
          <mxGeometry x="410" y="540" width="120" height="60" as="geometry" />
        </mxCell>
        <mxCell id="4UzRuKjp4Zi57GAiIAzN-8" value="Save value to oldvalue for filter" style="whiteSpace=wrap;html=1;rounded=1;dashed=0;" vertex="1" parent="WIyWlLk6GJQsqaUBKTNV-1">
          <mxGeometry x="550" y="540" width="120" height="60" as="geometry" />
        </mxCell>
        <mxCell id="4UzRuKjp4Zi57GAiIAzN-10" value="Return" style="html=1;dashed=0;whiteSpace=wrap;shape=mxgraph.dfd.start" vertex="1" parent="WIyWlLk6GJQsqaUBKTNV-1">
          <mxGeometry x="690" y="555" width="80" height="30" as="geometry" />
        </mxCell>
        <mxCell id="4UzRuKjp4Zi57GAiIAzN-11" style="edgeStyle=none;curved=1;rounded=0;orthogonalLoop=1;jettySize=auto;html=1;exitX=1;exitY=0.5;exitDx=0;exitDy=0;entryX=0;entryY=0.5;entryDx=0;entryDy=0;entryPerimeter=0;fontSize=12;startSize=8;endSize=8;" edge="1" parent="WIyWlLk6GJQsqaUBKTNV-1" source="4UzRuKjp4Zi57GAiIAzN-8" target="4UzRuKjp4Zi57GAiIAzN-10">
          <mxGeometry relative="1" as="geometry" />
        </mxCell>
        <mxCell id="4UzRuKjp4Zi57GAiIAzN-14" style="edgeStyle=none;curved=1;rounded=0;orthogonalLoop=1;jettySize=auto;html=1;exitX=1;exitY=0.5;exitDx=0;exitDy=0;exitPerimeter=0;entryX=0;entryY=0.5;entryDx=0;entryDy=0;fontSize=12;startSize=8;endSize=8;" edge="1" parent="WIyWlLk6GJQsqaUBKTNV-1" source="4UzRuKjp4Zi57GAiIAzN-12" target="4UzRuKjp4Zi57GAiIAzN-13">
          <mxGeometry relative="1" as="geometry" />
        </mxCell>
        <mxCell id="4UzRuKjp4Zi57GAiIAzN-12" value="Timer5 IRQ" style="html=1;dashed=0;whiteSpace=wrap;shape=mxgraph.dfd.start" vertex="1" parent="WIyWlLk6GJQsqaUBKTNV-1">
          <mxGeometry x="30" y="710" width="80" height="30" as="geometry" />
        </mxCell>
        <mxCell id="4UzRuKjp4Zi57GAiIAzN-13" value="Read analog voltage value on ADC" style="rounded=1;whiteSpace=wrap;html=1;dashed=0;" vertex="1" parent="WIyWlLk6GJQsqaUBKTNV-1">
          <mxGeometry x="130" y="695" width="120" height="60" as="geometry" />
        </mxCell>
      </root>
    </mxGraphModel>
  </diagram>
  <diagram id="3FK7qvERHFWDFFrIVxxG" name="Page-2">
    <mxGraphModel dx="474" dy="756" grid="1" gridSize="10" guides="1" tooltips="1" connect="1" arrows="1" fold="1" page="1" pageScale="1" pageWidth="850" pageHeight="1100" math="0" shadow="0">
      <root>
        <mxCell id="0" />
        <mxCell id="1" parent="0" />
      </root>
    </mxGraphModel>
  </diagram>
</mxfile>
